<svg xmlns="http://www.w3.org/2000/svg" version="1.1" xmlns:xlink="http://www.w3.org/1999/xlink" width="1000" height="1000"><style>
    #light-icon {
      display: inline;
    }
    #dark-icon {
      display: none;
    }

    @media (prefers-color-scheme: dark) {
      #light-icon {
        display: none;
      }
      #dark-icon {
        display: inline;
      }
    }
  </style><g id="light-icon"><svg xmlns="http://www.w3.org/2000/svg" version="1.1" xmlns:xlink="http://www.w3.org/1999/xlink" width="1000" height="1000"><g><g transform="matrix(41.666666666666664,0,0,41.666666666666664,0,0)"><svg xmlns="http://www.w3.org/2000/svg" version="1.1" xmlns:xlink="http://www.w3.org/1999/xlink" width="24" height="24"><svg xmlns="http://www.w3.org/2000/svg" width="24" height="24" viewBox="0 0 24 24" fill="none" stroke="#b57614" stroke-width="2" stroke-linecap="round" stroke-linejoin="round" class="lucide lucide-cassette-tape-icon lucide-cassette-tape"><rect width="20" height="16" x="2" y="4" rx="2"></rect><circle cx="8" cy="10" r="2"></circle><path d="M8 12h8"></path><circle cx="16" cy="10" r="2"></circle><path d="m6 20 .7-2.9A1.4 1.4 0 0 1 8.1 16h7.8a1.4 1.4 0 0 1 1.4 1l.7 3"></path></svg></svg></g></g></svg></g><g id="dark-icon"><svg xmlns="http://www.w3.org/2000/svg" version="1.1" xmlns:xlink="http://www.w3.org/1999/xlink" width="1000" height="1000"><g><g transform="matrix(41.666666666666664,0,0,41.666666666666664,0,0)"><svg xmlns="http://www.w3.org/2000/svg" version="1.1" xmlns:xlink="http://www.w3.org/1999/xlink" width="24" height="24"><svg xmlns="http://www.w3.org/2000/svg" width="24" height="24" viewBox="0 0 24 24" fill="none" stroke="#fabd2f" stroke-width="2" stroke-linecap="round" stroke-linejoin="round" class="lucide lucide-cassette-tape-icon lucide-cassette-tape"><rect width="20" height="16" x="2" y="4" rx="2"></rect><circle cx="8" cy="10" r="2"></circle><path d="M8 12h8"></path><circle cx="16" cy="10" r="2"></circle><path d="m6 20 .7-2.9A1.4 1.4 0 0 1 8.1 16h7.8a1.4 1.4 0 0 1 1.4 1l.7 3"></path></svg></svg></g></g></svg></g></svg>